<svg xmlns="http://www.w3.org/2000/svg" width="55.89mm" height="31.28mm" viewBox="0 0 158.44 88.67"><defs><style>.a{fill:#9d9d9c;}.b{fill:#8baddc;}.c{fill:#0069b4;}.d{fill:none;stroke:#0069b4;stroke-linecap:round;stroke-linejoin:round;stroke-width:2.59px;}.e{fill:#fff;}</style></defs><path class="a" d="M59.23,86.59a3.13,3.13,0,1,1-1.31-4.28,3.18,3.18,0,0,1,1.31,4.28" transform="translate(-0.88 -0.72)"/><path class="b" d="M10.35,67.64A50.25,50.25,0,0,1,6.21,31.7C9.41,19.78,16.93,10.25,27.39,4.89c17.16-8.8,43.36-3.09,53.9,11.75l-5,3.53C67.51,7.77,44.65,2.89,30.17,10.31a35.67,35.67,0,0,0-18.07,23,44.13,44.13,0,0,0,3.68,31.59Z" transform="translate(-0.88 -0.72)"/><path class="c" d="M45.16,89.39a44.13,44.13,0,0,1-6-87.87l.74,5.3A38.79,38.79,0,1,0,50.57,83.67l.74,5.3A45.84,45.84,0,0,1,45.16,89.39Z" transform="translate(-0.88 -0.72)"/><polyline class="a" points="33.37 70.53 39.3 70.53 39.3 71.79 37.11 71.79 37.11 75.6 35.56 75.6 35.56 71.79 33.37 71.79 33.37 70.53"/><path class="a" d="M40,72.75h1.26v.68h0c.16-.57.71-.74,1.31-.74,1,0,1.37.42,1.37,1.41,0,.09,0,.19,0,.32H42.75c0-.46-.1-.68-.64-.68s-.78.18-.78.61v2H40V72.75" transform="translate(-0.88 -0.72)"/><path class="a" d="M46.65,75.54c.92,0,1-.14,1-.38s-.08-.37-.82-.37h-.6c-.56,0-.68.13-.68.43s.18.32.7.32Zm-2.4-.47c0-1,.68-1,2-1,.74,0,1.14,0,1.4.28V74c0-.35-.11-.48-.63-.48h-.79c-.39,0-.51,0-.52.29h-1.3c0-1,.47-1.13,1.61-1.13h1.56c.93,0,1.42.44,1.42,1.29v2.34H47.7v-.41a1.22,1.22,0,0,1-1.18.47H45.6c-.82,0-1.35-.18-1.35-1v-.29" transform="translate(-0.88 -0.72)"/><path class="a" d="M49.93,73.67h-.62v-.92h.62v-.28c0-1,.51-1.28,1.64-1.28.37,0,.64,0,.92,0v.91l-.55,0c-.54,0-.67.1-.67.46v.17h1.28v.92H51.27v2.65H49.93V73.67" transform="translate(-0.88 -0.72)"/><path class="a" d="M54.37,76.32H53V72.75h1.34v3.57Zm0-4H53v-1h1.34v1" transform="translate(-0.88 -0.72)"/><path class="a" d="M55,74.34c0-1.36.67-1.65,1.65-1.65H58.2c1,0,1.6.37,1.6,1.19v.32H58.5c0-.37-.19-.5-.78-.5H57.2c-.56,0-.83.16-.83.55v.48c0,.46.3.59.72.59h.68c.38,0,.73-.08.73-.41v-.08h1.3v.32c0,.95-.8,1.23-1.57,1.23H56.86c-.89,0-1.83-.17-1.83-1.7v-.34" transform="translate(-0.88 -0.72)"/><polyline class="a" points="62.48 70.53 68.4 70.53 68.4 71.79 66.22 71.79 66.22 75.6 64.66 75.6 64.66 71.79 62.48 71.79 62.48 70.53"/><path class="a" d="M72.22,74c0-.43-.19-.51-1-.51s-1,.08-1,.51Zm-3.3.3c0-1.36.67-1.65,1.65-1.65h.94c1.43,0,2,.3,2,1.54v.61H70.26v.21c0,.38.27.49.83.49h.41c.73,0,.76-.2.76-.41h1.27v.16c0,.89-.8,1.09-1.78,1.09h-1c-.89,0-1.82-.17-1.82-1.7v-.34" transform="translate(-0.88 -0.72)"/><path class="a" d="M73.94,74.34c0-1.36.67-1.65,1.65-1.65H77.1c1,0,1.61.37,1.61,1.19v.32H77.4c0-.37-.18-.5-.77-.5h-.52c-.56,0-.83.16-.83.55v.48c0,.46.3.59.72.59h.68c.38,0,.72-.08.72-.41v-.08h1.31v.32c0,.95-.8,1.23-1.57,1.23H75.77c-.89,0-1.83-.17-1.83-1.7v-.34" transform="translate(-0.88 -0.72)"/><path class="a" d="M79.29,71.25h1.34v2.07h0c.24-.5.71-.63,1.43-.63s2,0,2,1.58v2H82.73v-2c0-.35-.28-.53-.87-.53h-.31c-.57,0-.92.27-.92.78v1.8H79.29V71.25" transform="translate(-0.88 -0.72)"/><path class="a" d="M84.82,72.75h1.35v.57h0c.24-.5.71-.63,1.43-.63s2,0,2,1.58v2H88.26v-2c0-.35-.28-.53-.87-.53h-.31c-.57,0-.91.27-.91.78v1.8H84.82V72.75" transform="translate(-0.88 -0.72)"/><path class="a" d="M91.61,74.7c0,.52.3.67.92.67h.32c.87,0,1-.12,1-.59v-.49c0-.48-.17-.59-1-.59h-.32c-.62,0-.92.16-.92.67v.33Zm-1.35-.59a1.3,1.3,0,0,1,1.48-1.42h2a1.3,1.3,0,0,1,1.48,1.42V75a1.3,1.3,0,0,1-1.48,1.42h-2A1.3,1.3,0,0,1,90.26,75v-.85" transform="translate(-0.88 -0.72)"/><polyline class="a" points="95.08 70.53 96.43 70.53 96.43 75.6 95.08 75.6 95.08 70.53"/><path class="a" d="M99.39,74.7c0,.52.3.67.92.67h.32c.87,0,1-.12,1-.59v-.49c0-.48-.17-.59-1-.59h-.32c-.62,0-.92.16-.92.67v.33Zm-1.34-.59a1.3,1.3,0,0,1,1.48-1.42h2A1.29,1.29,0,0,1,103,74.11V75a1.29,1.29,0,0,1-1.47,1.42h-2A1.3,1.3,0,0,1,98.05,75v-.85" transform="translate(-0.88 -0.72)"/><path class="a" d="M106.36,75.1c.67,0,.82-.17.82-.71s-.15-.73-.82-.73h-.66c-.66,0-.81.18-.81.73s.15.71.81.71Zm-2.78-1c0-1.11.57-1.4,1.64-1.4H106c.68,0,.84.09,1.17.55h0v-.49h1.26V76.1c0,.74-.24,1.47-1.93,1.47h-1.48c-.91,0-1.42-.22-1.42-1.12H105c0,.17.11.28.33.28h1c.59,0,.88-.19.88-.8V75.7c-.27.27-.49.37-1.21.37h-.71c-1.3,0-1.7-.52-1.7-1.49v-.49" transform="translate(-0.88 -0.72)"/><path class="a" d="M110.63,76.32h-1.35V72.75h1.35v3.57Zm0-4h-1.35v-1h1.35v1" transform="translate(-0.88 -0.72)"/><path class="a" d="M114.59,74c0-.43-.19-.51-1-.51s-1,.08-1,.51Zm-3.3.3c0-1.36.67-1.65,1.65-1.65h.94c1.43,0,2,.3,2,1.54v.61h-3.27v.21c0,.38.27.49.83.49h.42c.72,0,.76-.2.76-.41h1.26v.16c0,.89-.8,1.09-1.78,1.09h-1c-.89,0-1.83-.17-1.83-1.7v-.34" transform="translate(-0.88 -0.72)"/><path class="a" d="M119.74,74.66h1.55c0,.54.23.58.67.58h1.91c.33,0,.67,0,.67-.43s-.19-.46-2.19-.46c-2.34,0-2.61-.28-2.61-1.53,0-.92.09-1.63,2.05-1.63H124c1.79,0,2,.61,2,1.5v.16h-1.55c0-.37,0-.52-.76-.52h-1.72c-.35,0-.59.12-.59.39,0,.44.19.46,1.86.45,2.41,0,3,.14,3,1.62s-.46,1.59-2.53,1.59h-1.88c-1.42,0-2-.27-2-1.37v-.35" transform="translate(-0.88 -0.72)"/><path class="a" d="M127.54,76.69h.11c.53,0,.88-.11.88-.52h-.48l-1.63-3.42h1.45l1,2.49,1-2.49h1.46l-2,4.23c-.21.43-.61.59-1.29.59-.25,0-.42,0-.55,0v-.85" transform="translate(-0.88 -0.72)"/><path class="a" d="M133,75.21c0,.19.07.33.83.33h.48c.64,0,.8-.05.8-.27S135,75,134.48,75h-1.27c-1.25,0-1.62-.28-1.62-1.27s.71-1,1.64-1h.94c1.76,0,2.06.25,2.08,1.09H134.9c-.06-.21-.19-.25-1-.25s-.92,0-.92.27.1.21.8.21h.94c1.6,0,1.72.54,1.72,1.18,0,.94-.37,1.19-1.91,1.19h-1.27c-1.24,0-1.7-.29-1.7-1.17H133" transform="translate(-0.88 -0.72)"/><path class="a" d="M137.38,73.71h-.67v-1h.67v-.84h1.35v.84h2.09v1h-2.09v1.38c0,.27.19.32.52.32s.55-.1.55-.43v-.24H141v.44c0,.68-.45,1.2-1.52,1.2h-.54c-.82,0-1.54-.26-1.54-1.25V73.71" transform="translate(-0.88 -0.72)"/><path class="a" d="M144.7,74c0-.43-.2-.51-1-.51s-1,.08-1,.51ZM142,70.77h1.7l.9,1.38h-1.12L142,70.77Zm-.58,3.57c0-1.36.67-1.65,1.65-1.65H144c1.43,0,2,.3,2,1.54v.61h-3.26v.21c0,.38.26.49.82.49H144c.72,0,.76-.2.76-.41H146v.16c0,.89-.8,1.09-1.77,1.09h-1c-.89,0-1.83-.17-1.83-1.7v-.34" transform="translate(-0.88 -0.72)"/><path class="a" d="M146.52,72.75h1.28v.7h0c.06-.51.53-.76,1.19-.76h.51a1.32,1.32,0,0,1,1.32.84c.23-.65.51-.84,1.28-.84h.41c1.22,0,1.67.6,1.67,1.62v2h-1.35V74.4c0-.49-.12-.66-.91-.66s-.91.15-.91.61v2h-1.35v-2c0-.44-.16-.56-1-.56-.57,0-.85.15-.85.7v1.88h-1.34V72.75" transform="translate(-0.88 -0.72)"/><path class="a" d="M158,74c0-.43-.19-.51-1-.51s-1,.08-1,.51Zm-3.31.3c0-1.36.68-1.65,1.66-1.65h.94c1.43,0,2,.3,2,1.54v.61h-3.27v.21c0,.38.27.49.83.49h.41c.73,0,.77-.2.77-.41h1.26v.16c0,.89-.8,1.09-1.78,1.09h-1c-.89,0-1.83-.17-1.83-1.7v-.34" transform="translate(-0.88 -0.72)"/><polyline class="c" points="30.01 25.73 50.31 25.73 50.31 33.14 44.59 33.14 44.59 64.15 35.73 64.15 35.73 33.14 30.01 33.14 30.01 25.73"/><polygon class="d" points="30.01 25.73 50.31 25.73 50.31 33.14 44.59 33.14 44.59 64.15 35.73 64.15 35.73 33.14 30.01 33.14 30.01 25.73 30.01 25.73"/><polyline class="c" points="52.18 25.73 72.47 25.73 72.47 33.14 66.75 33.14 66.75 64.15 57.9 64.15 57.9 33.14 52.18 33.14 52.18 25.73"/><polygon class="d" points="52.18 25.73 72.47 25.73 72.47 33.14 66.75 33.14 66.75 64.15 57.9 64.15 57.9 33.14 52.18 33.14 52.18 25.73 52.18 25.73"/><path class="c" d="M83.12,51.84v2.84c0,2.07.48,4,3,4a2.82,2.82,0,0,0,3.08-3c0-3.37-3.51-5.63-7-8.17C78.6,44.58,75,42.47,75,36.6c0-7.55,4.23-10.77,11.3-10.77,7.69,0,11.06,3.75,11.06,9.66V39H89.13V36.89c0-1.92-.29-4.23-2.79-4.23a2.74,2.74,0,0,0-3,2.88c0,2.31,3.75,5,7.36,7.65C93.94,46.07,98,48,98,55.69c0,3.7-2.78,9.81-12,9.81C77.25,65.5,74.56,60,74.56,56V51.84h8.56" transform="translate(-0.88 -0.72)"/><path class="d" d="M83.12,51.84v2.84c0,2.07.48,4,3,4a2.82,2.82,0,0,0,3.08-3c0-3.37-3.51-5.63-7-8.17C78.6,44.58,75,42.47,75,36.6c0-7.55,4.23-10.77,11.3-10.77,7.69,0,11.06,3.75,11.06,9.66V39H89.13V36.89c0-1.92-.29-4.23-2.79-4.23a2.74,2.74,0,0,0-3,2.88c0,2.31,3.75,5,7.36,7.65C93.94,46.07,98,48,98,55.69c0,3.7-2.78,9.81-12,9.81C77.25,65.5,74.56,60,74.56,56V51.84Z" transform="translate(-0.88 -0.72)"/><polyline class="e" points="30.01 25.73 50.31 25.73 50.31 33.14 44.59 33.14 44.59 64.15 35.73 64.15 35.73 33.14 30.01 33.14 30.01 25.73"/><polyline class="e" points="52.18 25.73 72.47 25.73 72.47 33.14 66.75 33.14 66.75 64.15 57.9 64.15 57.9 33.14 52.18 33.14 52.18 25.73"/><path class="e" d="M83.12,51.84v2.84c0,2.07.48,4,3,4a2.82,2.82,0,0,0,3.08-3c0-3.37-3.51-5.63-7-8.17C78.6,44.58,75,42.47,75,36.6c0-7.55,4.23-10.77,11.3-10.77,7.69,0,11.06,3.75,11.06,9.66V39H89.13V36.89c0-1.92-.29-4.23-2.79-4.23a2.74,2.74,0,0,0-3,2.88c0,2.31,3.75,5,7.36,7.65C93.94,46.07,98,48,98,55.69c0,3.7-2.78,9.81-12,9.81C77.25,65.5,74.56,60,74.56,56V51.84h8.56" transform="translate(-0.88 -0.72)"/></svg>